<?xml version="1.0" encoding="UTF-8"?>
<svg xmlns="http://www.w3.org/2000/svg" xmlns:se="https://standardebooks.org/vocab/1.0" version="1.1" viewBox="0 0 1400 440" se:generated-from="9575eb3f366f6f9ae8a1ce499a53d0bd28f1b017">
	<path d="M 282.73855,66.843806 301.07827,66.843806 301.07827,128.60001 318.66943,128.60001 318.66943,66.843806 337.00915,66.843806 337.00915,51.404756 282.73855,51.404756 282.73855,66.843806 Z"/>
	<path d="M 365.93529,97.628336 390.82491,97.628336 390.82491,128.60001 408.41607,128.60001 408.41607,51.404756 390.82491,51.404756 390.82491,82.189286 365.93529,82.189286 365.93529,51.404756 348.34413,51.404756 348.34413,128.60001 365.93529,128.60001 365.93529,97.628336 Z"/>
	<path d="M 468.78319,51.404756 424.61815,51.404756 424.61815,128.60001 468.78319,128.60001 468.78319,113.16096 442.20931,113.16096 442.20931,97.628336 467.66035,97.628336 467.66035,82.189286 442.20931,82.189286 442.20931,66.843806 468.78319,66.843806 468.78319,51.404756 Z"/>
	<path d="M 514.48162,51.404756 514.48162,128.60001 532.07278,128.60001 532.07278,99.967586 542.64619,99.967586 C 557.71096,99.967586 569.03293,91.078436 569.03293,75.171536 569.03293,59.171066 557.71096,51.404756 542.64619,51.404756 L 514.48162,51.404756 Z M 532.07278,85.932086 532.07278,65.440256 537.03199,65.440256 C 543.95617,65.440256 550.50607,67.779506 550.50607,75.732956 550.50607,83.592836 543.95617,85.932086 537.03199,85.932086 L 532.07278,85.932086 Z"/>
	<path d="M 599.39185,51.404756 581.80069,51.404756 581.80069,128.60001 599.39185,128.60001 599.39185,51.404756 Z"/>
	<path d="M 653.82897,112.69311 C 636.14424,112.69311 628.37793,100.34187 628.37793,89.955596 628.37793,79.662896 636.14424,67.311656 653.82897,67.311656 662.81169,67.311656 668.98731,72.083726 668.98731,72.083726 L 676.47291,57.112526 C 676.47291,57.112526 667.86447,50.001206 651.11544,50.001206 629.22006,50.001206 609.28965,67.966646 609.28965,90.142736 609.28965,112.22526 629.31363,130.00356 651.11544,130.00356 667.86447,130.00356 676.47291,122.89224 676.47291,122.89224 L 668.98731,107.92104 C 668.98731,107.92104 662.81169,112.69311 653.82897,112.69311 Z"/>
	<path d="M 683.4291,66.843806 701.76882,66.843806 701.76882,128.60001 719.35998,128.60001 719.35998,66.843806 737.6997,66.843806 737.6997,51.404756 683.4291,51.404756 683.4291,66.843806 Z"/>
	<path d="M 808.35808,51.404756 790.76692,51.404756 790.76692,96.037646 C 790.76692,108.95031 786.83698,112.69311 778.22854,112.69311 769.6201,112.69311 765.69016,108.95031 765.69016,96.037646 L 765.69016,51.404756 748.099,51.404756 748.099,101.184 C 748.099,120.27228 758.57884,130.00356 778.22854,130.00356 797.87824,130.00356 808.35808,120.27228 808.35808,101.184 L 808.35808,51.404756 Z"/>
	<path d="M 823.66394,51.404756 823.66394,128.60001 841.2551,128.60001 841.2551,98.096186 864.83474,128.60001 887.19797,128.60001 860.62409,96.692636 C 870.07466,93.698396 876.43742,85.932086 876.43742,74.329406 876.43742,59.171066 865.5833,51.404756 851.26709,51.404756 L 823.66394,51.404756 Z M 841.2551,85.651376 841.2551,65.440256 843.31364,65.440256 C 849.95711,65.440256 857.91056,65.908106 857.91056,75.545816 857.91056,85.183526 849.95711,85.651376 843.31364,85.651376 L 841.2551,85.651376 Z"/>
	<path d="M 939.89966,51.404756 895.73462,51.404756 895.73462,128.60001 939.89966,128.60001 939.89966,113.16096 913.32578,113.16096 913.32578,97.628336 938.77682,97.628336 938.77682,82.189286 913.32578,82.189286 913.32578,66.843806 939.89966,66.843806 939.89966,51.404756 Z"/>
	<path d="M 982.136,89.955596 C 982.136,112.50597 998.23004,130.00356 1021.0611,130.00356 1043.2372,130.00356 1059.8927,112.50597 1059.8927,89.955596 1059.8927,67.405226 1042.4886,50.001206 1021.0611,50.001206 999.82073,50.001206 982.136,67.405226 982.136,89.955596 Z M 1001.1307,89.955596 C 1001.1307,78.446486 1007.4935,66.937376 1021.0611,66.937376 1034.7223,66.937376 1040.898,78.446486 1040.898,89.955596 1040.898,101.46471 1035.0966,112.97382 1021.0611,112.97382 1006.6513,112.97382 1001.1307,101.46471 1001.1307,89.955596 Z"/>
	<path d="M 1117.2874,51.404756 1072.6545,51.404756 1072.6545,128.60001 1090.2457,128.60001 1090.2457,97.628336 1115.2289,97.628336 1115.2289,82.189286 1090.2457,82.189286 1090.2457,66.843806 1117.2874,66.843806 1117.2874,51.404756 Z"/>
	<path d="M 325.63419,151.40476 325.63419,228.60001 347.99742,228.60001 C 369.23781,228.60001 386.92254,212.50597 386.92254,189.9556 386.92254,167.4988 369.14424,151.40476 347.99742,151.40476 L 325.63419,151.40476 Z M 343.22535,212.88025 343.22535,167.12452 345.93888,167.12452 C 359.03868,167.12452 367.92783,177.13651 367.92783,190.04917 367.83426,202.96183 358.94511,212.88025 345.93888,212.88025 L 343.22535,212.88025 Z"/>
	<path d="M 396.25308,189.9556 C 396.25308,212.50597 412.34712,230.00356 435.1782,230.00356 457.35429,230.00356 474.00975,212.50597 474.00975,189.9556 474.00975,167.40523 456.60573,150.00121 435.1782,150.00121 413.93781,150.00121 396.25308,167.40523 396.25308,189.9556 Z M 415.24779,189.9556 C 415.24779,178.44649 421.61055,166.93738 435.1782,166.93738 448.83942,166.93738 455.01504,178.44649 455.01504,189.9556 455.01504,201.46471 449.2137,212.97382 435.1782,212.97382 420.76842,212.97382 415.24779,201.46471 415.24779,189.9556 Z"/>
	<path d="M 486.77167,151.40476 486.77167,228.60001 504.36283,228.60001 504.36283,198.09619 527.94247,228.60001 550.3057,228.60001 523.73182,196.69264 C 533.18239,193.6984 539.54515,185.93209 539.54515,174.32941 539.54515,159.17107 528.69103,151.40476 514.37482,151.40476 L 486.77167,151.40476 Z M 504.36283,185.65138 504.36283,165.44026 506.42137,165.44026 C 513.06484,165.44026 521.01829,165.90811 521.01829,175.54582 521.01829,185.18353 513.06484,185.65138 506.42137,185.65138 L 504.36283,185.65138 Z"/>
	<path d="M 576.43351,151.40476 558.84235,151.40476 558.84235,228.60001 576.43351,228.60001 576.43351,151.40476 Z"/>
	<path d="M 631.9233,151.40476 615.64212,151.40476 584.48331,228.60001 603.38445,228.60001 609.09222,213.16096 638.4732,213.16096 644.18097,228.60001 663.08211,228.60001 631.9233,151.40476 Z M 632.48472,197.72191 615.0807,197.72191 623.68914,175.26511 623.87628,175.26511 632.48472,197.72191 Z"/>
	<path d="M 688.59296,180.69217 688.7801,180.69217 719.47106,228.60001 737.06222,228.60001 737.06222,151.40476 719.47106,151.40476 719.47106,199.3126 719.28392,199.3126 688.59296,151.40476 671.0018,151.40476 671.0018,228.60001 688.59296,228.60001 688.59296,180.69217 Z"/>
	<path d="M 853.69547,185.37067 818.0453,185.37067 818.0453,198.93832 835.8236,198.93832 C 835.8236,208.38889 827.49587,213.81595 819.07457,213.81595 808.22045,213.81595 799.42487,203.14897 799.42487,190.04917 799.42487,176.66866 808.22045,165.90811 819.07457,165.90811 825.90518,165.90811 831.80009,168.62164 836.29145,175.82653 L 847.80056,163.19458 C 841.06352,155.05399 831.61295,150.00121 818.0453,150.00121 796.33706,150.00121 780.43016,167.87308 780.43016,190.04917 780.43016,212.13169 797.27276,230.00356 818.0453,230.00356 833.20364,230.00356 849.48482,221.67583 853.69547,202.1197 L 853.69547,185.37067 Z"/>
	<path d="M 866.37992,151.40476 866.37992,228.60001 883.97108,228.60001 883.97108,198.09619 907.55072,228.60001 929.91395,228.60001 903.34007,196.69264 C 912.79064,193.6984 919.1534,185.93209 919.1534,174.32941 919.1534,159.17107 908.29928,151.40476 893.98307,151.40476 L 866.37992,151.40476 Z M 883.97108,185.65138 883.97108,165.44026 886.02962,165.44026 C 892.67309,165.44026 900.62654,165.90811 900.62654,175.54582 900.62654,185.18353 892.67309,185.65138 886.02962,185.65138 L 883.97108,185.65138 Z"/>
	<path d="M 977.65643,151.40476 961.37525,151.40476 930.21644,228.60001 949.11758,228.60001 954.82535,213.16096 984.20633,213.16096 989.9141,228.60001 1008.8152,228.60001 977.65643,151.40476 Z M 978.21785,197.72191 960.81383,197.72191 969.42227,175.26511 969.60941,175.26511 978.21785,197.72191 Z"/>
	<path d="M 999.90692,151.40476 1028.3522,193.97911 1028.3522,228.60001 1045.9434,228.60001 1045.9434,193.97911 1074.3886,151.40476 1053.2418,151.40476 1037.1478,176.10724 1021.0537,151.40476 999.90692,151.40476 Z"/>
	<path d="M 422.28415,359.96567 C 422.28415,376.87905 434.35511,390.00271 451.47903,390.00271 468.11169,390.00271 480.60373,376.87905 480.60373,359.96567 480.60373,343.05229 467.55025,329.99881 451.47903,329.99881 435.54817,329.99881 422.28415,343.05229 422.28415,359.96567 Z M 436.53069,359.96567 C 436.53069,351.33353 441.30293,342.70139 451.47903,342.70139 461.72531,342.70139 466.35719,351.33353 466.35719,359.96567 466.35719,368.59781 462.00603,377.22995 451.47903,377.22995 440.67131,377.22995 436.53069,368.59781 436.53069,359.96567 Z"/>
	<path d="M 512.7601,329.99881 C 503.42616,329.99881 493.88168,336.87645 493.88168,347.68417 493.88168,353.71965 497.95212,359.12351 504.89994,362.56233 511.77758,366.00115 517.95342,367.89601 517.95342,372.10681 517.95342,377.51067 512.47938,377.79139 509.602,377.79139 503.14544,377.79139 495.42564,371.26465 495.42564,371.26465 L 488.82872,382.35309 C 488.82872,382.35309 497.03978,390.00271 510.58452,390.00271 521.8835,390.00271 532.4105,385.16029 532.4105,371.33483 532.4105,363.75539 525.32232,358.28135 518.86576,355.54433 512.26884,352.73713 506.7948,350.42119 506.7948,347.19291 506.7948,344.03481 509.18092,341.99959 513.67244,341.99959 519.63774,341.99959 525.3925,345.99985 525.3925,345.99985 L 530.72618,335.47285 C 530.72618,335.47285 523.2871,329.99881 512.7601,329.99881 Z"/>
	<path d="M 572.19347,377.01941 C 558.92945,377.01941 553.10451,367.75565 553.10451,359.96567 553.10451,352.24587 558.92945,342.98211 572.19347,342.98211 578.93075,342.98211 583.56263,346.56129 583.56263,346.56129 L 589.17703,335.33249 C 589.17703,335.33249 582.72047,329.99881 570.15825,329.99881 553.73613,329.99881 538.78779,343.47337 538.78779,360.10603 538.78779,376.66851 553.80631,390.00271 570.15825,390.00271 582.72047,390.00271 589.17703,384.66903 589.17703,384.66903 L 583.56263,373.44023 C 583.56263,373.44023 578.93075,377.01941 572.19347,377.01941 Z"/>
	<path d="M 628.69901,331.05151 616.48769,331.05151 593.11775,388.95001 607.29411,388.95001 611.57509,377.37031 633.61161,377.37031 637.89259,388.95001 652.06895,388.95001 628.69901,331.05151 Z M 629.12009,365.79061 616.06661,365.79061 622.52317,348.94741 622.66353,348.94741 629.12009,365.79061 Z"/>
	<path d="M 659.25879,331.05151 659.25879,388.95001 672.45263,388.95001 672.45263,366.07133 690.13799,388.95001 706.91101,388.95001 686.97989,365.01863 C 694.06807,362.77287 698.84031,356.94793 698.84031,348.24561 698.84031,336.87645 690.69943,331.05151 679.96189,331.05151 L 659.25879,331.05151 Z M 672.45263,356.73739 672.45263,341.57851 673.99659,341.57851 C 678.97937,341.57851 684.94467,341.92941 684.94467,349.15795 684.94467,356.38649 678.97937,356.73739 673.99659,356.73739 L 672.45263,356.73739 Z"/>
	<path d="M 777.28336,388.95001 791.8808,388.95001 808.3731,331.05151 793.77566,331.05151 783.88028,370.77339 783.52938,370.77339 773.00238,331.05151 763.03682,331.05151 752.50982,370.77339 752.15892,370.77339 742.26354,331.05151 727.59592,331.05151 744.08822,388.95001 758.75584,388.95001 768.0196,356.45667 777.28336,388.95001 Z"/>
	<path d="M 829.73161,331.05151 816.53777,331.05151 816.53777,388.95001 829.73161,388.95001 829.73161,331.05151 Z"/>
	<path d="M 856.38871,331.05151 843.19487,331.05151 843.19487,388.95001 876.31983,388.95001 876.31983,377.37031 856.38871,377.37031 856.38871,331.05151 Z"/>
	<path d="M 887.80821,331.05151 887.80821,388.95001 904.58123,388.95001 C 920.51209,388.95001 933.77611,376.87905 933.77611,359.96567 933.77611,343.12247 920.44191,331.05151 904.58123,331.05151 L 887.80821,331.05151 Z M 901.00205,377.15977 901.00205,342.84175 903.03727,342.84175 C 912.86247,342.84175 919.52957,350.35101 919.52957,360.03585 919.45939,369.72069 912.79229,377.15977 903.03727,377.15977 L 901.00205,377.15977 Z"/>
	<path d="M 977.74576,331.05151 944.6208,331.05151 944.6208,388.95001 977.74576,388.95001 977.74576,377.37031 957.81464,377.37031 957.81464,365.72043 976.9036,365.72043 976.9036,354.14073 957.81464,354.14073 957.81464,342.63121 977.74576,342.63121 977.74576,331.05151 Z"/>
</svg>
